<?xml version="1.0" encoding="utf-8"?>
<!-- Generator: Adobe Illustrator 22.0.0, SVG Export Plug-In . SVG Version: 6.00 Build 0)  -->
<svg version="1.1" id="Layer_1" xmlns="http://www.w3.org/2000/svg" xmlns:xlink="http://www.w3.org/1999/xlink" x="0px" y="0px"
	 viewBox="0 0 48.4 48.4" style="enable-background:new 0 0 48.4 48.4;" xml:space="preserve">
<style type="text/css">
	.st0{fill:url(#SVGID_1_);}
	.st1{fill:none;stroke:#FFFFFF;stroke-linecap:round;stroke-linejoin:round;stroke-miterlimit:10;}
</style>
<g>
	<linearGradient id="SVGID_1_" gradientUnits="userSpaceOnUse" x1="0" y1="24.1831" x2="48.3662" y2="24.1831">
		<stop  offset="1.641790e-02" style="stop-color:#A9DC93"/>
		<stop  offset="0.9048" style="stop-color:#F6894E"/>
		<stop  offset="1" style="stop-color:#FF8046"/>
	</linearGradient>
	<path class="st0" d="M48.4,24.2c0,13.4-10.8,24.2-24.2,24.2C10.8,48.4,0,37.5,0,24.2C0,10.8,10.8,0,24.2,0
		C37.5,0,48.4,10.8,48.4,24.2z"/>
	<g id="Thyroid_x2C__endocrinologist_x2C__organ_00000021810764544147298940000003347567302982509502_">
		<g id="XMLID_00000110471624664666962560000012650207333890559166_">
			<path id="XMLID_00000140705907241528700920000015150948230097107859_" class="st1" d="M29.6,15.7l0.8-4.5
				c0.1-0.8-0.6-1.4-1.4-1.1c-1.3,0.5-3,1.1-4.8,1.1c-1.7,0-3.5-0.6-4.8-1.1c-0.7-0.3-1.5,0.3-1.4,1.1l0.8,4.5
				c0.3,1.4,1.2,2.6,2.6,3.1c0.8,0.3,1.7,0.5,2.7,0.5c1,0,1.9-0.2,2.7-0.5C28.3,18.4,29.3,17.2,29.6,15.7z"/>
			<path id="XMLID_00000103243391422758321460000015396275337627975847_" class="st1" d="M27.7,36.7c-0.9,0.3-2.1,0.6-3.5,0.6
				c-0.5,0-1,0-1.5-0.1"/>
			<path id="XMLID_00000124138479417324294380000002581642432971733175_" class="st1" d="M27.7,34.8c-0.6,0.2-1.2,0.4-2,0.4
				c-0.5,0.1-0.9,0.1-1.4,0.1c-0.5,0-1,0-1.5-0.1"/>
			<path id="XMLID_00000044177377675498918030000001101930103676589212_" class="st1" d="M28.4,24c-0.9,0.6-2.4,1.3-4.2,1.3
				c-0.7,0-1.3-0.1-1.9-0.3"/>
			<path id="XMLID_00000055697948610984063770000018299065602027151771_" class="st1" d="M29.2,20.9c-0.5,0.4-2.5,1.9-5,1.9
				c-2.3,0-4.1-1.2-4.8-1.7"/>
			<path id="XMLID_00000142872051259960927980000008909828597052534949_" class="st1" d="M20.4,35.1l0.2,2.3c0.1,1,0.9,1.8,2,1.8
				h3.3c1,0,1.9-0.8,2-1.8L28,35"/>
			<path id="XMLID_00000023267475230278749340000000019789204049563808_" class="st1" d="M26.5,27.6c-0.6,0.5-1.6,0.7-2.2,0.7
				c-0.7,0-1.6-0.3-2.2-0.8"/>
			<path id="XMLID_00000127727275237315586960000009457100436618295965_" class="st1" d="M22,33.4c1.2-0.9,3.3-0.9,4.5-0.1"/>
			<path id="XMLID_00000090986500191233027080000016916896028459132584_" class="st1" d="M25.8,29.3c0-1.5,3.7-4.5,3.9-12.1
				c0-0.4,0.5-0.6,0.8-0.4c3.3,2.4,5.2,5.3,5.2,10c0,2.5-0.9,5.3-1.9,7c-1.3,2.3-5.8,3.6-8-2"/>
			<path id="XMLID_00000008115008670295537980000003488803633032837310_" class="st1" d="M22.7,29.3c0-1.5-3.7-4.5-3.9-12.1
				c0-0.4-0.5-0.6-0.8-0.4c-3.3,2.4-5.2,5.3-5.2,10c0,2.5,0.9,5.3,1.9,7c1.3,2.3,5.8,3.6,8-2"/>
		</g>
	</g>
</g>
</svg>
