<?xml version="1.0" encoding="utf-8"?>
<!-- Generator: Adobe Illustrator 22.0.0, SVG Export Plug-In . SVG Version: 6.00 Build 0)  -->
<svg version="1.1" id="Layer_1" xmlns="http://www.w3.org/2000/svg" xmlns:xlink="http://www.w3.org/1999/xlink" x="0px" y="0px"
	 viewBox="0 0 48.4 48.4" style="enable-background:new 0 0 48.4 48.4;" xml:space="preserve">
<style type="text/css">
	.st0{fill:url(#SVGID_1_);}
	.st1{fill:none;stroke:#FFFFFF;stroke-linecap:round;stroke-linejoin:round;stroke-miterlimit:10;}
</style>
<g>
	<linearGradient id="SVGID_1_" gradientUnits="userSpaceOnUse" x1="0" y1="24.1831" x2="48.3662" y2="24.1831">
		<stop  offset="1.641790e-02" style="stop-color:#A9DC93"/>
		<stop  offset="0.9048" style="stop-color:#F6894E"/>
		<stop  offset="1" style="stop-color:#FF8046"/>
	</linearGradient>
	<path class="st0" d="M48.4,24.2c0,13.4-10.8,24.2-24.2,24.2C10.8,48.4,0,37.5,0,24.2C0,10.8,10.8,0,24.2,0
		C37.5,0,48.4,10.8,48.4,24.2z"/>
	<g>
		<path class="st1" d="M13.9,36.7c0.2,0.9,0.6,1.6,1.3,2c2,1.3,5.5-0.7,7.7-4.3c0.1-0.2,0.2-0.3,0.3-0.5"/>
		<path class="st1" d="M22.7,32.9C22.7,32.9,22.6,32.9,22.7,32.9C22.6,33,22.6,33,22.5,33c-0.2,0.2-0.4,0.4-0.5,0.5
			c-0.5,0.5-1,0.9-1.6,1.3c-2.3,1.5-4.7,2.1-6.5,1.9c-1-0.1-1.8-0.6-2.3-1.3c-0.8-1.3-0.4-3.1,0.9-4.9"/>
		<path class="st1" d="M12.5,24.5c-1.4,0.9-2.3,2.1-2.2,3.3c0.1,1.1,0.9,2,2.1,2.7c0.6,0.4,1.4,0.6,2.3,0.8c0.1,0,0.2,0,0.3,0.1
			c0.7,0.1,1.5,0.2,2.3,0.2c0.3,0,0.6,0,0.9,0c0.9-0.1,1.7-0.2,2.5-0.4c0.7-0.2,1.3-0.4,1.9-0.7"/>
		<path class="st1" d="M13,19.3c-1,0.6-1.7,1.4-1.8,2.4c-0.1,1,0.4,2,1.3,2.8c0.7,0.6,1.6,1.2,2.6,1.6c0.1,0,0.2,0.1,0.3,0.1
			c0.6,0.2,1.1,0.4,1.8,0.5c0.3,0.1,0.6,0.1,0.9,0.2c0.1,0,0.1,0,0.2,0C18.9,27,19.4,27,20,27c0.9,0,1.8-0.1,2.6-0.3"/>
		<path class="st1" d="M22.6,22C22.6,22,22.6,22,22.6,22L22.6,22"/>
		<path class="st1" d="M15.4,14.6c-1.7,0.8-2.8,2-2.8,3.4c0,2.4,3.4,4.3,7.7,4.3c0.8,0,1.6-0.1,2.4-0.2"/>
		<path class="st1" d="M23.1,9.8c-4.3,0.3-7.7,2.1-7.7,4.3c0,0.1,0,0.3,0,0.4c0.3,1.8,3,3.3,6.4,3.8"/>
		<path class="st1" d="M22.3,13.7c0.2-0.1,0.4-0.4,0.4-0.7v-0.5"/>
		<path class="st1" d="M27.4,14.9v2.4c0,0.3-0.2,0.6-0.4,0.8l-0.4,0.2l-0.3,0.2c-0.3,0.1-0.4,0.4-0.4,0.8v13.4c0,1-0.7,1.7-1.6,1.7
			c-0.4,0-0.8-0.2-1.1-0.5c-0.3-0.3-0.5-0.7-0.5-1.2V19.3c0-0.3-0.2-0.6-0.4-0.8l-0.3-0.2l-0.4-0.2c-0.3-0.1-0.4-0.4-0.4-0.8v-2.4
			c0-0.3,0.2-0.6,0.4-0.8l0.7-0.4c0,0,0,0,0.1,0c0.2-0.1,0.4-0.4,0.4-0.7v-2c0-0.4,0.1-0.9,0.4-1.2c0.3-0.4,0.7-0.6,1.2-0.6
			c0.4,0,0.8,0.2,1.1,0.5c0,0,0,0,0.1,0.1c0.3,0.3,0.4,0.7,0.4,1.2v2c0,0.3,0.1,0.6,0.4,0.7c0,0,0,0,0.1,0l0.7,0.4
			C27.2,14.3,27.4,14.6,27.4,14.9z"/>
		<path class="st1" d="M25.3,33.9c0.1,0.2,0.2,0.4,0.3,0.5c2.2,3.6,5.6,5.5,7.7,4.3c0.7-0.4,1.1-1.1,1.3-2"/>
		<path class="st1" d="M36,30.6c1.3,1.8,1.7,3.6,0.9,4.9c-0.5,0.7-1.3,1.2-2.3,1.3c-1.8,0.3-4.2-0.4-6.5-1.9
			c-0.6-0.4-1.2-0.8-1.6-1.3c-0.2-0.2-0.4-0.4-0.5-0.5c0,0-0.1-0.1-0.1-0.1c0,0,0,0,0,0"/>
		<line class="st1" x1="29.6" y1="10.7" x2="29.6" y2="10.7"/>
		<path class="st1" d="M25.8,30.5c0.6,0.3,1.2,0.5,1.9,0.7c0.8,0.2,1.6,0.4,2.5,0.4c0.3,0,0.6,0,0.9,0c0.8,0,1.6-0.1,2.3-0.2
			c0.1,0,0.2,0,0.3-0.1c0.9-0.2,1.6-0.5,2.3-0.8c1.2-0.7,2-1.6,2.1-2.7c0.1-1.2-0.8-2.4-2.2-3.3"/>
		<path class="st1" d="M25.8,26.7c0.8,0.2,1.7,0.3,2.6,0.3c0.6,0,1.1,0,1.7-0.1c0.1,0,0.1,0,0.2,0c0.3,0,0.6-0.1,0.9-0.2
			c0.6-0.1,1.2-0.3,1.8-0.5c0.1,0,0.2-0.1,0.3-0.1c1.1-0.4,1.9-1,2.6-1.6c0.9-0.8,1.4-1.8,1.3-2.8c-0.1-1-0.8-1.8-1.8-2.4"/>
		<path class="st1" d="M26,21.9L26,21.9C25.9,22,25.9,22,26,21.9"/>
		<path class="st1" d="M25.8,22c0.7,0.1,1.5,0.2,2.4,0.2c4.2,0,7.7-1.9,7.7-4.3c0-1.3-1.1-2.6-2.8-3.4"/>
		<path class="st1" d="M28.2,10.3c-0.9-0.2-1.8-0.4-2.8-0.4 M26.6,18.3c3.5-0.5,6.1-2,6.4-3.8c0-0.1,0-0.3,0-0.4
			c0-1.1-0.9-2.1-2.3-2.9"/>
	</g>
</g>
</svg>
