<?xml version="1.0" encoding="utf-8"?>
<!-- Generator: Adobe Illustrator 22.0.0, SVG Export Plug-In . SVG Version: 6.00 Build 0)  -->
<svg version="1.1" id="Layer_1" xmlns="http://www.w3.org/2000/svg" xmlns:xlink="http://www.w3.org/1999/xlink" x="0px" y="0px"
	 viewBox="0 0 48.4 48.4" style="enable-background:new 0 0 48.4 48.4;" xml:space="preserve">
<style type="text/css">
	.st0{fill:url(#SVGID_1_);}
	.st1{fill:none;stroke:#FFFFFF;stroke-linecap:round;stroke-linejoin:round;stroke-miterlimit:10;}
</style>
<g>
	<linearGradient id="SVGID_1_" gradientUnits="userSpaceOnUse" x1="0" y1="24.1831" x2="48.3662" y2="24.1831">
		<stop  offset="1.641790e-02" style="stop-color:#A9DC93"/>
		<stop  offset="0.9048" style="stop-color:#F6894E"/>
		<stop  offset="1" style="stop-color:#FF8046"/>
	</linearGradient>
	<path class="st0" d="M48.4,24.2c0,13.4-10.8,24.2-24.2,24.2C10.8,48.4,0,37.5,0,24.2C0,10.8,10.8,0,24.2,0
		C37.5,0,48.4,10.8,48.4,24.2z"/>
	<g id="lungs_x2C__Organ_00000009563292501008374820000014386170201859218341_">
		<g id="XMLID_00000106136787010316594160000001292122081765270197_">
			<path id="XMLID_00000116954318444723829000000018322731253944456127_" class="st1" d="M26.7,15.9v-1.2c0-2.1,2.5-3.3,4.1-1.9
				l1.8,1.5c3.9,3.2,6.1,8,6.1,13.1v8.3c0,1.3-1.3,2.3-2.6,1.9l-3.8-1.2c-3.4-1-5.7-4.1-5.7-7.6V18"/>
			<g id="XMLID_00000067921056897695957270000000798262944838049188_">
				<g id="XMLID_00000139996532627576627270000014458611381632582548_">
					<path id="XMLID_00000116952969765260568680000005369020687548094910_" class="st1" d="M28.7,21.9v3c0,0.5,0.1,0.9,0.3,1.3l0,0
						c0.5,1,1.5,1.6,2.6,1.6h1.1"/>
					<line id="XMLID_00000093897097701262889130000015967342708898253704_" class="st1" x1="29.8" y1="27.4" x2="30.6" y2="29.6"/>
				</g>
				<line id="XMLID_00000024690297452647774750000011090646512483232687_" class="st1" x1="31.8" y1="23.8" x2="33.2" y2="22.2"/>
				<path id="XMLID_00000152970836511210337480000004473295372710074528_" class="st1" d="M24.7,8.9v8c0,0.6,0.4,1,1,1l0,0
					c1.7,0,3,1.3,3,3v1.5c0,0.8,0.7,1.5,1.5,1.5h4"/>
			</g>
			<path id="XMLID_00000145018125036249762720000011610919165420307103_" class="st1" d="M28.7,20.9c0,0.6,0.4,1,1,1l0,0
				c0.6,0,1-0.4,1-1v-1"/>
			<path id="XMLID_00000150082223131435608330000003319424007584467097_" class="st1" d="M21.7,15.9v-1.2c0-2.1-2.5-3.3-4.1-1.9
				l-1.8,1.5c-3.9,3.2-6.1,8-6.1,13.1v8.3c0,1.3,1.3,2.3,2.6,1.9l3.8-1.2c3.4-1,5.7-4.1,5.7-7.6V18"/>
			<g id="XMLID_00000047757972538230451960000005771829654427856769_">
				<g id="XMLID_00000047035290525802769040000002857528828222387618_">
					<path id="XMLID_00000019639778427459225290000011046685076092671124_" class="st1" d="M19.7,21.9v3c0,0.5-0.1,0.9-0.3,1.3l0,0
						c-0.5,1-1.5,1.6-2.6,1.6h-1.1"/>
					<line id="XMLID_00000025434972176145657770000004748528192701230474_" class="st1" x1="18.6" y1="27.4" x2="17.7" y2="29.6"/>
				</g>
				<line id="XMLID_00000148636933672061741820000002254673572304476338_" class="st1" x1="16.6" y1="23.8" x2="15.2" y2="22.2"/>
				<path id="XMLID_00000011741643192132070540000001970627121476684711_" class="st1" d="M23.7,8.9v8c0,0.6-0.4,1-1,1l0,0
					c-1.7,0-3,1.3-3,3v1.5c0,0.8-0.7,1.5-1.5,1.5h-4"/>
			</g>
			<path id="XMLID_00000049221436012009390760000006417259516655197602_" class="st1" d="M19.7,20.9c0,0.6-0.4,1-1,1l0,0
				c-0.6,0-1-0.4-1-1v-1"/>
			<g id="XMLID_00000080166046709557448530000007558785073134471305_">
				<line id="XMLID_00000165934309306100442030000009627728275301835666_" class="st1" x1="35.8" y1="31.9" x2="35.7" y2="31.9"/>
				<line id="XMLID_00000072975957123694637360000014903643473079049350_" class="st1" x1="32.8" y1="30.9" x2="32.7" y2="30.9"/>
				<line id="XMLID_00000110442354798898841030000004493648824260952221_" class="st1" x1="34.8" y1="27.9" x2="34.7" y2="27.9"/>
				<line id="XMLID_00000167377917057911660810000010650612416389634751_" class="st1" x1="35.8" y1="24.9" x2="35.7" y2="24.9"/>
				<line id="XMLID_00000129901329347621023050000010245332170581970095_" class="st1" x1="34.8" y1="20.9" x2="34.7" y2="20.9"/>
			</g>
			<g id="XMLID_00000017481356248964873270000003152960655185539752_">
				<line id="XMLID_00000145035914416512640540000010960593575204634519_" class="st1" x1="12.6" y1="31.9" x2="12.7" y2="31.9"/>
				<line id="XMLID_00000136371630122827473370000016021426561118181302_" class="st1" x1="15.6" y1="30.9" x2="15.7" y2="30.9"/>
				<line id="XMLID_00000160890558813327686350000001449514106504638393_" class="st1" x1="13.6" y1="27.9" x2="13.7" y2="27.9"/>
				<line id="XMLID_00000096019741765697394800000004645002665853879996_" class="st1" x1="12.6" y1="24.9" x2="12.7" y2="24.9"/>
				<line id="XMLID_00000058559037049751722590000012774942719129362054_" class="st1" x1="13.6" y1="20.9" x2="13.7" y2="20.9"/>
			</g>
		</g>
	</g>
</g>
</svg>
