<?xml version="1.0" encoding="utf-8"?>
<!-- Generator: Adobe Illustrator 22.0.0, SVG Export Plug-In . SVG Version: 6.00 Build 0)  -->
<svg version="1.1" id="Layer_1" xmlns="http://www.w3.org/2000/svg" xmlns:xlink="http://www.w3.org/1999/xlink" x="0px" y="0px"
	 viewBox="0 0 48.4 48.4" style="enable-background:new 0 0 48.4 48.4;" xml:space="preserve">
<style type="text/css">
	.st0{fill:url(#SVGID_1_);}
	.st1{fill:none;stroke:#FFFFFF;stroke-linecap:round;stroke-linejoin:round;stroke-miterlimit:10;}
</style>
<g>
	<linearGradient id="SVGID_1_" gradientUnits="userSpaceOnUse" x1="0" y1="24.1831" x2="48.3662" y2="24.1831">
		<stop  offset="1.641790e-02" style="stop-color:#A9DC93"/>
		<stop  offset="0.9048" style="stop-color:#F6894E"/>
		<stop  offset="1" style="stop-color:#FF8046"/>
	</linearGradient>
	<path class="st0" d="M48.4,24.2c0,13.4-10.8,24.2-24.2,24.2C10.8,48.4,0,37.5,0,24.2C0,10.8,10.8,0,24.2,0
		C37.5,0,48.4,10.8,48.4,24.2z"/>
	<g id="brain_x2C__mind_x2C__organ_00000173849503863358653880000009648976503310459578_">
		<path id="XMLID_00000124161953506378654100000003301183046870152597_" class="st1" d="M21.9,31c0.8,1.7,2.1,3,3.9,3.6
			c1.5,0.6,2.8,1.7,3.6,3.1l0.3,0.5"/>
		<path id="XMLID_00000040550327324577720680000003705102552376512672_" class="st1" d="M32.7,40l-0.3-1.6c-0.3-1.6-0.9-3.1-1.8-4.4
			"/>
		<path id="XMLID_00000006668948824940345750000007413262585966628507_" class="st1" d="M19.8,15.8c-1,0.2-1.3,1.6-0.8,2
			c-1.1,0.2-2,1.1-2,2.3c0,0.1,0,0.2,0,0.3c-0.2,0-0.4-0.1-0.6-0.1c-1.3,0-2.7,0.6-3.1,2.3"/>
		<path id="XMLID_00000080207210413916688900000005567272068904192167_" class="st1" d="M23.8,15.4c0.8-1,1.4-2.1,1.1-3.4
			c-0.3-1.1-2.3-1.7-3.3,0.2c-0.1,0.3-0.2,0.8-0.4,1.5"/>
		<path id="XMLID_00000163795350679885773640000011473068146728583318_" class="st1" d="M21,27.1c0,0,3.2-2.3,6-1
			c1.5,0.7,3.7,0.7,4.7-0.6c0.9-1.1,0.9-2.6,2.4-2.6c0.7,0,1.5,0.6,1.5,1.4"/>
		<path id="XMLID_00000141430485796556774960000006176228344939114430_" class="st1" d="M13.4,17C13,16.7,13,16.3,13,15.8
			c0-0.9,0.9-1.9,2-1.9c0.8,0,1.4,0.2,1.7,0.8"/>
		<path id="XMLID_00000057134978970061099100000004755259075179290509_" class="st1" d="M21.6,12.3"/>
		<path id="XMLID_00000179640388705293122470000004923525989357856951_" class="st1" d="M24.4,21.5c1.2-0.5,2.7-0.6,4-0.2"/>
		<path id="XMLID_00000124137198322565938140000015944418889443150721_" class="st1" d="M18.5,26.2c-0.1,0.6-0.4,1.3-0.8,1.8
			c-0.4,0.5-0.9,0.9-1.5,0.9c-0.2,0-0.5-0.1-0.7-0.2c-0.8-0.4-1.1-1.4-0.7-2.2c0.4-0.8,1.5-2.8,2.7-3.4c1.5-0.7,3.2-0.6,4-0.5
			c0,0,0.1,0,0.1,0"/>
		<path id="XMLID_00000070078767855918026360000006204064865819310471_" class="st1" d="M16.3,17c0,0-0.1,1.3,1.1,1.6"/>
		<path id="XMLID_00000167366744367023492670000002270021866743911809_" class="st1" d="M32.8,26.9c-1.3,0.7-1.9-0.4-1.6-1"/>
		<path id="XMLID_00000004529191193063283670000006202911541789268137_" class="st1" d="M29.2,24.6c-0.7-0.1-2.1,0.8-1,1.8"/>
		<path id="XMLID_00000011753510979176064470000012313108434653874048_" class="st1" d="M14.6,27h-0.9c-2.2,0-4-1.8-4-4v-1
			c0-1.4,1.1-2.5,2.5-2.5h0.5"/>
		<path id="XMLID_00000179629975512269571760000003229361522283724454_" class="st1" d="M16.8,28.8c0.4,1.3,1.5,2.2,2.9,2.2h4
			c1.3,0,2.5-0.9,2.9-2.1"/>
		<path id="XMLID_00000173122581805179265040000008340633535432938387_" class="st1" d="M28.2,33.8c0.5,0.2,1,0.2,1.5,0.2h3
			c1.1,0,2-0.9,2-2l0,0c0-1.1-0.9-2-2-2h-0.5"/>
		<path id="XMLID_00000022559907985036533960000009220630925685657233_" class="st1" d="M34.4,31c2.4-0.3,4.3-2.4,4.3-5v-2.5
			c0-2.8-2.2-5-5-5h-0.5"/>
		<path id="XMLID_00000096746774646511717900000001149375315223968418_" class="st1" d="M13,16.3c-0.9,1-1.6,2.3-2.1,3.6"/>
		<path id="XMLID_00000018930605064116435150000004684297060520178317_" class="st1" d="M21.7,12c-2.3,0.1-4.4,0.8-6.1,2"/>
		<path id="XMLID_00000120533807180200170470000001489678341720038548_" class="st1" d="M33,14.2c-1.7-1.4-3.9-2.2-6.3-2.2h-1.8"/>
		<path id="XMLID_00000124877606536160718750000004210319923135508131_" class="st1" d="M35.8,18.9c0.1-0.3,0.2-0.7,0.2-1.1
			c0-2-1.7-3.7-3.7-3.7c-1.4,0-2.5,0.7-3.2,1.8"/>
		<path id="XMLID_00000173145546370811822760000012832371718571253667_" class="st1" d="M30.9,21.2c-0.3,0.4-0.7,0.6-1.2,0.6
			c-0.9,0-1.6-0.7-1.6-1.6c0-0.5,0.3-1,0.6-1.3"/>
		<path id="XMLID_00000000216740363036105890000012424965465036669315_" class="st1" d="M20.4,20.8c0,1.1,0.9,2,2,2c1.1,0,2-0.9,2-2
			c0-0.4-0.2-1.1-0.4-1.4"/>
		<line id="XMLID_00000181086008822482654860000002084267160859214217_" class="st1" x1="30.8" y1="40" x2="30.7" y2="40"/>
	</g>
</g>
</svg>
