<?xml version="1.0" encoding="utf-8"?>
<!-- Generator: Adobe Illustrator 22.0.0, SVG Export Plug-In . SVG Version: 6.00 Build 0)  -->
<svg version="1.1" id="Layer_1" xmlns="http://www.w3.org/2000/svg" xmlns:xlink="http://www.w3.org/1999/xlink" x="0px" y="0px"
	 viewBox="0 0 48.4 48.4" style="enable-background:new 0 0 48.4 48.4;" xml:space="preserve">
<style type="text/css">
	.st0{fill:url(#SVGID_1_);}
	.st1{fill:none;stroke:#FFFFFF;stroke-linecap:round;stroke-linejoin:round;stroke-miterlimit:10;}
	.st2{fill:#FFFFFF;}
</style>
<g>
	<linearGradient id="SVGID_1_" gradientUnits="userSpaceOnUse" x1="0" y1="24.1831" x2="48.3662" y2="24.1831">
		<stop  offset="1.641790e-02" style="stop-color:#A9DC93"/>
		<stop  offset="0.9048" style="stop-color:#F6894E"/>
		<stop  offset="1" style="stop-color:#FF8046"/>
	</linearGradient>
	<path class="st0" d="M48.4,24.2c0,13.4-10.8,24.2-24.2,24.2C10.8,48.4,0,37.5,0,24.2C0,10.8,10.8,0,24.2,0
		C37.5,0,48.4,10.8,48.4,24.2z"/>
	<g>
		<path class="st1" d="M16.5,11.8c0,0,0.6-3.7-3.7-2.9c0,0-1.3,0.3-2.2,1.7c-1.2,2-1.3,6.1,1.9,7.3c0,0,4.6,1.4,3.9-3.5
			c0,0-0.9-0.3-0.9-1.2C15.6,13.1,15.5,12.2,16.5,11.8z"/>
		<path class="st1" d="M31.7,11.8c0,0-0.6-3.7,3.7-2.9c0,0,1.3,0.3,2.2,1.7c1.2,2,1.3,6.1-1.9,7.3c0,0-4.6,1.4-3.9-3.5
			c0,0,0.9-0.3,0.9-1.2C32.6,13.1,32.7,12.2,31.7,11.8z"/>
		<path class="st1" d="M15.7,13.1c0,0,3.2,0.1,3.2,4.6"/>
		<line class="st1" x1="18.9" y1="20.9" x2="18.9" y2="26.7"/>
		<path class="st2" d="M19.4,19.3c0,0.3-0.2,0.5-0.5,0.5c-0.3,0-0.5-0.2-0.5-0.5s0.2-0.5,0.5-0.5C19.2,18.8,19.4,19.1,19.4,19.3z"/>
		<path class="st1" d="M29.3,26.7v-6.3v-2.7c0-4.5,3.2-4.6,3.2-4.6"/>
		<path class="st1" d="M25.4,29c0,0-6.3-1-7.7,4.2c0,0-1.1,4.4,3.7,6.4c0,0,2.4,0.9,2.6,4.3"/>
		<path class="st1" d="M28.7,30.4c0.7,0.6,1.3,1.5,1.6,2.7c0,0,1.1,4.4-3.7,6.4c0,0-2.4,0.9-2.6,4.3"/>
		<path class="st1" d="M20.8,36c0,0-1.2-3.7,2.5-4.3"/>
	</g>
</g>
</svg>
