<?xml version="1.0" encoding="utf-8"?>
<!-- Generator: Adobe Illustrator 22.0.0, SVG Export Plug-In . SVG Version: 6.00 Build 0)  -->
<svg version="1.1" id="Layer_1" xmlns="http://www.w3.org/2000/svg" xmlns:xlink="http://www.w3.org/1999/xlink" x="0px" y="0px"
	 viewBox="0 0 48.4 48.4" style="enable-background:new 0 0 48.4 48.4;" xml:space="preserve">
<style type="text/css">
	.st0{fill:url(#SVGID_1_);}
	.st1{fill:#FFFFFF;}
</style>
<g>
	<linearGradient id="SVGID_1_" gradientUnits="userSpaceOnUse" x1="0" y1="24.1831" x2="48.3662" y2="24.1831">
		<stop  offset="1.641790e-02" style="stop-color:#A9DC93"/>
		<stop  offset="0.9048" style="stop-color:#F6894E"/>
		<stop  offset="1" style="stop-color:#FF8046"/>
	</linearGradient>
	<path class="st0" d="M48.4,24.2c0,13.4-10.8,24.2-24.2,24.2C10.8,48.4,0,37.5,0,24.2C0,10.8,10.8,0,24.2,0
		C37.5,0,48.4,10.8,48.4,24.2z"/>
	<g>
		<path class="st1" d="M25,39.9c0,0.2-0.2,0.4-0.4,0.3c-0.2,0-0.4-0.2-0.3-0.4c0.3-2.7,1.1-4.7,1.7-6.2c0.3-0.7,0.5-1.2,0.6-1.6
			c0.1-0.6-0.1-1-1.1-1.2l-0.3-0.1l0-0.3c-0.3-2.9-0.1-5.1,0.4-6.7c0.5-1.7,1.5-2.7,2.8-3l0,0c0.9-0.2,1.7-0.4,2.4-0.8
			c0.7-0.4,1.3-0.9,1.8-1.4c0.8-1.2,1.9-1.6,2.9-1.4c0.6,0.1,1.1,0.4,1.5,0.8c0.4,0.4,0.7,0.9,0.8,1.5c0.3,1.3-0.3,3-2.2,4.6
			c-0.2,0.1-0.4,0.1-0.5,0c-0.1-0.2-0.1-0.4,0-0.5c1.7-1.4,2.2-2.9,2-3.9c-0.1-0.5-0.3-0.9-0.6-1.2c-0.3-0.3-0.7-0.5-1.1-0.6
			c-0.7-0.1-1.6,0.2-2.2,1.1l0,0l0,0c-0.6,0.6-1.3,1.2-2.1,1.6c-0.8,0.4-1.6,0.7-2.6,0.9c-1.1,0.2-1.8,1.1-2.3,2.5
			c-0.5,1.5-0.6,3.5-0.4,6.2c1.4,0.4,1.6,1,1.4,2c-0.1,0.5-0.3,1.1-0.6,1.8C26.1,35.3,25.3,37.2,25,39.9L25,39.9z"/>
		<path class="st1" d="M31.5,21.1c0-0.2,0.2-0.4,0.4-0.3c0.2,0,0.4,0.2,0.3,0.4c-0.2,2.1-0.8,3.3-1.4,4.5c-0.5,1.1-1.1,2.2-1.4,4.1
			c-0.2,1.3-0.2,2.3-0.2,3.4c0.1,2.3,0.1,4.4-2.4,7.9c-0.1,0.2-0.3,0.2-0.5,0.1c-0.2-0.1-0.2-0.3-0.1-0.5c2.3-3.3,2.3-5.2,2.2-7.4
			c0-1.1-0.1-2.2,0.2-3.5c0.3-2,0.9-3.2,1.4-4.3C30.7,24.2,31.3,23.1,31.5,21.1L31.5,21.1z"/>
		<path class="st1" d="M36.2,23.8c0.4,0.4,0.6,1.1,0.5,1.7c-0.1,0.6-0.4,1.3-0.9,1.8c-0.5,0.5-1.2,0.8-1.8,0.9
			c-0.7,0.1-1.3-0.1-1.7-0.5c-0.4-0.4-0.6-1.1-0.5-1.7c0.1-0.6,0.4-1.3,0.9-1.8c0.5-0.5,1.2-0.8,1.8-0.9
			C35.1,23.2,35.7,23.3,36.2,23.8L36.2,23.8z M35.6,24.3C35.4,24,35,23.9,34.5,24c-0.5,0.1-1,0.3-1.4,0.7c-0.4,0.4-0.7,0.9-0.7,1.4
			c-0.1,0.4,0,0.8,0.3,1.1c0.3,0.3,0.7,0.4,1.1,0.3c0.5-0.1,1-0.3,1.4-0.7l0,0c0.4-0.4,0.7-0.9,0.7-1.4C36,25,35.9,24.6,35.6,24.3
			L35.6,24.3z"/>
		<path class="st1" d="M24.1,39.8c0,0.2-0.1,0.4-0.3,0.4c-0.2,0-0.4-0.1-0.4-0.3c-0.2-2.6-1-4.6-1.6-6c-0.3-0.7-0.5-1.3-0.6-1.8
			c-0.2-1,0.1-1.7,1.4-2c0.2-2.6,0.1-4.7-0.4-6.2c-0.4-1.4-1.2-2.2-2.3-2.5c-1-0.2-1.8-0.5-2.6-0.9c-0.8-0.4-1.5-1-2.1-1.6l0,0l0,0
			c-0.6-0.9-1.5-1.2-2.2-1.1c-0.4,0.1-0.8,0.3-1.1,0.6c-0.3,0.3-0.5,0.7-0.6,1.2c-0.2,1.1,0.3,2.5,2,3.9c0.2,0.1,0.2,0.4,0,0.5
			c-0.1,0.2-0.4,0.2-0.5,0c-2-1.6-2.5-3.3-2.2-4.6c0.1-0.6,0.4-1.1,0.8-1.5c0.4-0.4,0.9-0.7,1.5-0.8c1-0.2,2.1,0.2,2.9,1.4
			c0.5,0.6,1.2,1.1,1.8,1.4c0.7,0.4,1.5,0.7,2.4,0.8l0,0c1.4,0.3,2.3,1.3,2.8,3c0.5,1.6,0.6,3.8,0.4,6.7l0,0.3l-0.3,0.1
			c-1,0.2-1.2,0.6-1.1,1.2c0.1,0.4,0.3,1,0.6,1.6C23,35.1,23.8,37,24.1,39.8L24.1,39.8z"/>
		<path class="st1" d="M16.2,21.2c0-0.2,0.1-0.4,0.3-0.4c0.2,0,0.4,0.1,0.4,0.3c0.2,2,0.7,3.1,1.3,4.3c0.5,1.1,1.1,2.3,1.4,4.3
			c0.2,1.3,0.2,2.4,0.2,3.5c-0.1,2.2-0.1,4.1,2.2,7.4c0.1,0.2,0.1,0.4-0.1,0.5c-0.2,0.1-0.4,0.1-0.5-0.1c-2.5-3.5-2.4-5.5-2.4-7.9
			c0-1,0.1-2.1-0.2-3.4c-0.3-1.9-0.8-3-1.4-4.1C16.9,24.5,16.4,23.3,16.2,21.2L16.2,21.2z"/>
		<path class="st1" d="M12.7,24.3c-0.3,0.3-0.4,0.7-0.3,1.1c0.1,0.5,0.3,1,0.7,1.4l0,0c0.4,0.4,0.9,0.7,1.4,0.7
			c0.4,0.1,0.8,0,1.1-0.3c0.3-0.3,0.4-0.7,0.3-1.1c-0.1-0.5-0.3-1-0.7-1.4c-0.4-0.4-0.9-0.7-1.4-0.7C13.4,23.9,13,24,12.7,24.3
			L12.7,24.3z M12.2,23.8c0.4-0.4,1.1-0.6,1.7-0.5c0.6,0.1,1.3,0.4,1.8,0.9c0.5,0.5,0.8,1.2,0.9,1.8c0.1,0.7-0.1,1.3-0.5,1.7
			c-0.4,0.4-1.1,0.6-1.7,0.5c-0.6-0.1-1.3-0.4-1.8-0.9c-0.5-0.5-0.8-1.2-0.9-1.8C11.6,24.8,11.8,24.2,12.2,23.8L12.2,23.8z"/>
		<path class="st1" d="M12.3,24.6c0.2,0.1,0.2,0.4,0.1,0.5c-0.1,0.2-0.4,0.2-0.5,0.1c-0.8-0.6-1.6-1.3-2.2-2
			c-0.7-0.7-1.3-1.4-1.7-2.1c-0.7-1.1-1.2-2.2-1.3-3.2c-0.1-0.7,0-1.3,0.2-1.9C7,15.3,7.4,14.8,8,14.4c0.6-0.4,1.4-0.7,2.4-0.8
			c2.3-0.3,4.4,1,6.2,2.1c0.7,0.5,1.4,0.9,2,1.1c1.4,0.5,2.4,0.2,3.3-0.2c0.4-0.1,0.7-0.3,1.1-0.3c0.3-0.1,0.8-0.1,1.3-0.1
			c0.5,0,1,0,1.3,0.1c0.4,0.1,0.8,0.2,1.1,0.3c0.9,0.3,1.9,0.7,3.3,0.2c0.5-0.2,1.2-0.6,2-1.1c1.7-1.1,3.9-2.4,6.2-2.1
			c1,0.1,1.8,0.4,2.4,0.8c0.6,0.4,1,0.9,1.2,1.5c0.2,0.6,0.3,1.2,0.2,1.9c-0.1,1-0.6,2.2-1.3,3.2c-0.5,0.7-1.1,1.4-1.7,2.1
			c-0.7,0.7-1.4,1.3-2.2,2c-0.2,0.1-0.4,0.1-0.5-0.1c-0.1-0.2-0.1-0.4,0.1-0.5c0.8-0.6,1.5-1.3,2.2-1.9c0.6-0.7,1.2-1.4,1.7-2
			c0.7-1,1.1-2,1.2-2.9c0.1-0.6,0-1.1-0.2-1.5c-0.2-0.4-0.5-0.8-0.9-1.1c-0.5-0.3-1.2-0.6-2-0.7c-2-0.2-4,1-5.7,2
			c-0.8,0.5-1.5,0.9-2.1,1.1c-1.6,0.6-2.8,0.2-3.8-0.2c-0.4-0.1-0.7-0.3-1-0.3c-0.2,0-0.7-0.1-1.1-0.1c-0.5,0-0.9,0-1.1,0.1
			c-0.3,0.1-0.7,0.2-1,0.3c-1.1,0.4-2.2,0.8-3.8,0.2c-0.6-0.2-1.3-0.7-2.1-1.1c-1.6-1-3.7-2.2-5.7-2c-0.9,0.1-1.5,0.3-2,0.7
			c-0.5,0.3-0.8,0.7-0.9,1.1c-0.2,0.5-0.2,1-0.2,1.5c0.1,0.9,0.5,1.9,1.2,2.9c0.4,0.7,1,1.4,1.7,2C10.8,23.3,11.5,24,12.3,24.6
			L12.3,24.6z"/>
		<path class="st1" d="M15.7,15.8c-0.2,0.1-0.4,0.1-0.5,0c-0.1-0.2-0.1-0.4,0-0.5c0.8-0.7,1.7-1.3,2.7-1.7c1-0.4,2.1-0.8,3.4-1
			c1-0.2,1.9-0.2,2.8-0.2c0.9,0,1.9,0.1,2.8,0.2c1.3,0.2,2.4,0.5,3.4,1c1,0.4,1.9,1,2.7,1.7c0.2,0.1,0.2,0.4,0,0.5
			c-0.1,0.2-0.4,0.2-0.5,0c-0.7-0.6-1.5-1.2-2.5-1.6c-1-0.4-2-0.7-3.2-0.9c-0.9-0.2-1.8-0.2-2.7-0.2c-0.9,0-1.8,0.1-2.7,0.2
			c-1.2,0.2-2.3,0.5-3.2,0.9C17.3,14.6,16.5,15.2,15.7,15.8L15.7,15.8z"/>
	</g>
</g>
</svg>
