<?xml version="1.0" encoding="utf-8"?>
<!-- Generator: Adobe Illustrator 22.0.0, SVG Export Plug-In . SVG Version: 6.00 Build 0)  -->
<svg version="1.1" id="Layer_1" xmlns="http://www.w3.org/2000/svg" xmlns:xlink="http://www.w3.org/1999/xlink" x="0px" y="0px"
	 viewBox="0 0 48.4 48.4" style="enable-background:new 0 0 48.4 48.4;" xml:space="preserve">
<style type="text/css">
	.st0{fill:url(#SVGID_1_);}
	.st1{fill:none;stroke:#FFFFFF;stroke-linecap:round;stroke-linejoin:round;stroke-miterlimit:10;}
</style>
<g>
	<linearGradient id="SVGID_1_" gradientUnits="userSpaceOnUse" x1="0" y1="24.1831" x2="48.3662" y2="24.1831">
		<stop  offset="1.641790e-02" style="stop-color:#A9DC93"/>
		<stop  offset="0.9048" style="stop-color:#F6894E"/>
		<stop  offset="1" style="stop-color:#FF8046"/>
	</linearGradient>
	<path class="st0" d="M48.4,24.2c0,13.4-10.8,24.2-24.2,24.2C10.8,48.4,0,37.5,0,24.2C0,10.8,10.8,0,24.2,0
		C37.5,0,48.4,10.8,48.4,24.2z"/>
	<g id="Organ_x2C__stomach_00000140001573754279177120000003788841939260690050_">
		<g id="XMLID_00000095310649704396755100000014655368140390174093_">
			<path id="XMLID_00000049905090230580195220000014880129908839701640_" class="st1" d="M12.6,38.5v-7.3c0-1,0.8-1.8,1.8-1.8
				c0.4,0,0.8,0.2,1.1,0.4c-1.7,4.6,1.6,8.6,6.1,8.6c12.4,0,17-11,17-20.5c0-4.1-2.8-7.5-7.5-7.5c-2,0-3.8,0.8-5.1,2h-1.4
				c-1.7,0-3-1.3-3-3"/>
			<path id="XMLID_00000143580583327000231530000003667210086418326700_" class="st1" d="M18.6,9.5c0,3.1,2.4,5.7,5.5,6
				c-0.3,0.8-0.5,1.6-0.5,2.5v3.1c0,2.6-1.8,4.8-4.3,5.4c-0.8,0.2-1.5,0.5-2.1,1c-0.8-0.6-1.8-1-2.9-1c-2.6,0-4.8,2.1-4.8,4.8v7.3"
				/>
			<path id="XMLID_00000032622919574042134490000013988682995091313058_" class="st1" d="M23.7,36.1c5.5-0.7,8.9-4.2,10.7-8.6"/>
			<path id="XMLID_00000065781224394445628400000001822670662508228516_" class="st1" d="M21.6,36.2C21.6,36.2,21.6,36.2,21.6,36.2"
				/>
		</g>
	</g>
</g>
</svg>
