<?xml version="1.0" encoding="utf-8"?>
<!-- Generator: Adobe Illustrator 22.0.0, SVG Export Plug-In . SVG Version: 6.00 Build 0)  -->
<svg version="1.1" id="Layer_1" xmlns="http://www.w3.org/2000/svg" xmlns:xlink="http://www.w3.org/1999/xlink" x="0px" y="0px"
	 viewBox="0 0 48.4 48.4" style="enable-background:new 0 0 48.4 48.4;" xml:space="preserve">
<style type="text/css">
	.st0{fill:url(#SVGID_1_);}
	.st1{fill:none;stroke:#FFFFFF;stroke-linecap:round;stroke-linejoin:round;stroke-miterlimit:10;}
</style>
<g>
	<linearGradient id="SVGID_1_" gradientUnits="userSpaceOnUse" x1="0" y1="24.1831" x2="48.3662" y2="24.1831">
		<stop  offset="1.641790e-02" style="stop-color:#A9DC93"/>
		<stop  offset="0.9048" style="stop-color:#F6894E"/>
		<stop  offset="1" style="stop-color:#FF8046"/>
	</linearGradient>
	<path class="st0" d="M48.4,24.2c0,13.4-10.8,24.2-24.2,24.2C10.8,48.4,0,37.5,0,24.2C0,10.8,10.8,0,24.2,0
		C37.5,0,48.4,10.8,48.4,24.2z"/>
	<g id="Anatomy_x2C__cardiology_x2C__heart_x2C__organ_00000170995040090863143450000005258322610911415724_">
		<g id="XMLID_00000044880352310868470740000001333077273593254528_">
			<path id="XMLID_00000093143158255475423240000014725082582573375629_" class="st1" d="M36.4,20.7c-0.4,0.2-1.9,0.3-3.3,0.5"/>
			<path id="XMLID_00000150079856745181309310000013414375016405302709_" class="st1" d="M34.3,17.9c0,0-1.7,1.6-2.5,1.8"/>
			<path id="XMLID_00000165934766610615967940000011824908533119456163_" class="st1" d="M11,28.5c0.6,0.1,2.7-1,4.1-1.4"/>
			<path id="XMLID_00000026882564392746600010000013285203630006161836_" class="st1" d="M11.6,25.5c0.2,0.2,3,0,3.6,0"/>
			<line id="XMLID_00000060016279404184287130000011155331180932487813_" class="st1" x1="23.5" y1="11.3" x2="22.3" y2="9.8"/>
			<path id="XMLID_00000178904604073540789920000004083294943526908607_" class="st1" d="M25.6,11.2c-0.1,0-0.3-0.1-0.4-0.1l0.1-1.5
				"/>
			<path id="XMLID_00000098924336041398421510000008458838790625015940_" class="st1" d="M27.9,12.7c-0.3-0.4-0.6-0.7-1-0.9l0.8-2"
				/>
			<path id="XMLID_00000158010429995895779490000001182060586758927006_" class="st1" d="M21.9,11.9c-0.4,0.2-0.7,0.5-1,0.8"/>
			<path id="XMLID_00000153671745617093687390000014714490222278368408_" class="st1" d="M29.5,18.3c0.1,0,0.2,0.1,0.3,0.2l0,0
				c3.4,1.9,4,3.3,3,4"/>
			<path id="XMLID_00000168096635808143985410000006743379975891538848_" class="st1" d="M15.9,12.5l0.5,3.6c0.3,2.1,0.3,4.2,0,6.3
				c-1.8,2.7-1.4,6.1-0.5,7.6c0.8,1.3,1.9,0.1,3.2-1.6"/>
			<path id="XMLID_00000035518349390887187070000008192415639564175005_" class="st1" d="M22.8,23.7c1.2-1.8,0.9-3-0.4-3.5
				c-0.5-0.2-1-0.3-1.5-0.3L19.3,12c-0.2-0.4-1.1-0.6-1.8-0.5"/>
			<path id="XMLID_00000060737848624257226910000013506586752241037245_" class="st1" d="M16.5,30.5c0,0.1,0,0.2,0.1,0.2
				c4.2,9,11.7,8,16.9,8c2.3,0,4.4-2.5,3.8-7.2c-0.4-3.3-2.1-9.1-3.8-9.2c-1.5,0.8-3.5,0.5-5.5,0c-0.4-0.1-0.7-0.4-0.8-0.8l0-0.3
				c-0.4-2.8,1.6-5.4,4.4-5.7l0.3,0c0.7-0.4,0.4-1.8-0.2-1.7L29,13.9c-1.2,0.2-2.4,0.6-3.3,1.3c-0.4,0.3-0.9-0.8-1.7-0.1
				c-1.1,0.9-0.9,2.1-0.7,2.9c-0.3,0.7-0.6,1.4-0.7,2.2"/>
			<path id="XMLID_00000142152327880237315770000017525663349379156872_" class="st1" d="M19.5,21.8c0,0,1.4-1,1.3-2"/>
			<path id="XMLID_00000176017990148842855640000012321601866057424570_" class="st1" d="M26,23.7c0,0,1.3-1.1,1.3-1.8"/>
		</g>
	</g>
</g>
</svg>
